<svg version="1.1" xmlns="http://www.w3.org/2000/svg" xmlns:xlink="http://www.w3.org/1999/xlink" width="93.66509" height="101.55754" viewBox="0,0,93.66509,101.55754"><g transform="translate(-193.17325,-129.11553)"><g data-paper-data="{&quot;isPaintingLayer&quot;:true}" fill-rule="evenodd" stroke-miterlimit="10" stroke-dasharray="" stroke-dashoffset="0" style="mix-blend-mode: normal"><g><path d="M254.21398,158.90709c-0.81645,-0.36525 -2.55356,-1.19136 -0.30189,-4.69136c2.25167,-3.5 9.11521,-4.49588 9.91447,-4.53026c3.09284,-0.23313 6.88933,-0.39643 11.14561,0.82178c12.36063,3.47201 13.02351,16.55561 9.21736,18.82127c-3.70624,2.26136 -5.75277,-5.7581 -11.45826,-10.41721c-2.49233,-2.09483 -5.42403,-2.76946 -7.8433,-3.16586c-3.42264,-0.45333 -9.75333,3.62249 -10.67399,3.16163z" fill="#ffab19" stroke="#001026" stroke-width="1.2" stroke-linecap="round" stroke-linejoin="round"/><path d="M279.33917,165.93383c-1.71455,-2.62875 -4.97499,-6.29201 -4.97499,-6.29201c0,0 3.73526,0.74016 5.76026,-1.04851c1.64256,-1.37186 1.14839,-3.55263 0.91849,-4.24339c1.35467,1.24293 3.03054,2.97251 4.18003,6.4263c1.14949,3.45379 0.33091,7.69289 -1.64146,8.37828c-1.98096,0.48558 -2.54496,-0.99155 -4.24233,-3.22066z" fill="#ffffff" stroke="none" stroke-width="1" stroke-linecap="butt" stroke-linejoin="miter"/></g><path d="M248.77166,148.73157c1.74677,-1.27625 7.75195,-5.93862 15.53722,-8.77582l0.39533,-0.1171c0.39533,-0.1171 0.57366,-0.62523 0.35666,-1.01627c-1.80157,-2.32473 -5.10498,-6.98707 0.31688,-8.92186c5.22205,-1.9262 15.71884,11.73533 11.68173,15.6124c-1.83808,1.48036 -3.56659,0.85406 -4.48295,0.49311c-0.50813,-0.17833 -1.00767,-0.15684 -1.50291,-0.03545c-1.1817,0.4512 -3.34529,1.34501 -5.00504,2.31723c-4.20148,2.38276 -5.16188,3.3249 -7.09557,4.90947c-1.93369,1.58456 -6.37043,5.47883 -10.20453,2.44079c-3.31308,-2.55999 -1.64366,-5.63457 0.0032,-6.90652z" fill="#ffab19" stroke="#001026" stroke-width="1.2" stroke-linecap="round" stroke-linejoin="round"/><path d="M233.78023,170.19566c-0.51673,-0.37814 -6.92051,-7.30935 -8.84131,-5.42506c-2.30754,2.2012 -5.42829,6.43923 -9.16678,3.29699c-3.73849,-3.14224 2.81457,-9.0293 5.64743,-10.65254c6.7604,-3.39366 12.60878,2.26023 13.87643,3.80718c1.26765,1.54695 3.48174,4.15421 3.59348,6.75181c0.02042,2.80171 -3.34635,3.64718 -5.10925,2.22162z" fill="#ffab19" stroke="#001026" stroke-width="1.2" stroke-linecap="round" stroke-linejoin="round"/><g><path d="M232.67901,146.92148c-2.17971,-1.808 -6.94306,-5.50671 -6.94306,-5.50671c0,0 -14.17935,3.11223 -14.48877,-4.08112c-0.18479,-4.29603 6.96558,-5.60452 16.6953,-5.12221c0.60374,0.07412 1.21178,0.24815 1.72851,0.6263c2.27962,1.8037 8.81446,7.12779 12.97836,10.85228c6.1438,5.54109 11.20258,9.127 11.20258,9.127c8.84884,7.92705 2.10562,11.72034 -0.3856,16.63194c-2.32149,4.20365 -3.45486,3.45166 -9.50088,2.51062c-3.41835,-0.35342 -5.42939,-0.5672 -7.62306,-0.37274c-3.29265,0.24172 -2.89949,-4.57963 -2.10776,-7.11599c0,0 1.2397,-3.75675 2.45685,-5.71086c1.49968,-2.36663 2.63411,-3.91682 3.79432,-4.86756z" fill="#ffab19" stroke="#001026" stroke-width="1.2" stroke-linecap="round" stroke-linejoin="round"/><path d="M241.38926,153.95365c0,0 1.55018,1.13443 3.21317,2.56428c2.07551,1.71239 4.13812,3.12505 2.27319,6.30814c-1.6952,2.47514 -3.25611,5.74524 -7.87658,3.0413c-4.41206,-2.51271 -2.62125,-5.09206 -2.62125,-5.09206c2.00458,-4.59039 5.01147,-6.82167 5.01147,-6.82167z" fill="#ffffff" stroke="none" stroke-width="1" stroke-linecap="butt" stroke-linejoin="miter"/></g><path d="M256.82771,161.49716c-2.3183,-2.70287 -5.86557,-6.05352 -1.69417,-9.13563c5.75273,-3.5505 11.07795,6.22968 12.22744,9.68347c1.03239,3.05846 -1.47926,5.16835 -3.60417,6.96132c-4.16281,3.28193 -7.63915,6.23405 -11.69992,4.90733c-5.07274,-1.58346 -1.64796,-5.73448 0.77238,-7.64025c1.45134,-1.16345 2.89839,-2.4268 3.96729,-3.17343c0.27824,-0.51243 0.35236,-1.11617 0.03115,-1.60282z" fill="#ffab19" stroke="#001026" stroke-width="1.2" stroke-linecap="round" stroke-linejoin="round"/><g><path d="M228.25331,230.1886c-0.29113,0.21271 -0.79496,0.13429 -0.91206,-0.26105l-3.05743,-10.57838c0,0 -6.59607,-4.42062 -8.63613,-7.63592c-3.4334,-5.3574 -3.7267,-9.84894 -3.7267,-9.84894c0,0 -7.18369,-1.79294 -8.62754,-7.4361c-1.44385,-5.64316 2.48796,-16.62228 21.11158,-21.12678c18.62363,-4.50451 33.92885,-0.05814 41.5122,11.02621c7.58335,11.08435 -3.02184,25.1531 -2.45678,24.32805l2.86731,17.79322c0.1171,0.39533 -0.36955,0.71654 -0.77777,0.53392l-12.42832,-7.37271c0,0 -4.42279,1.89182 -9.10985,2.29361c-2.78882,0.32014 -5.1952,0.22347 -7.51026,-0.07732z" fill="#ffab19" stroke="#001026" stroke-width="1.2" stroke-linecap="butt" stroke-linejoin="miter"/><path d="M212.20352,201.45179c0,0 -6.97098,-1.50181 -8.41483,-7.14498c-1.44385,-5.64316 2.90908,-16.13993 21.33719,-20.53593c23.96277,-6.03537 36.07098,7.85712 29.8327,18.73525c-6.23398,10.97805 -18.11443,2.38066 -26.48088,3.3411c-7.17186,0.80896 -7.70038,7.13752 -16.27418,5.60456z" fill="#ffffff" stroke="none" stroke-width="1" stroke-linecap="butt" stroke-linejoin="miter"/><path d="M243.21459,189.40797c0.01719,0.39963 -0.36955,0.71654 -0.77348,0.63383c-1.92833,-0.6177 -7.3921,-1.98416 -13.40374,-2.12594c-5.4079,-0.06766 -8.59205,0.36958 -10.07778,0.73377c-0.49524,0.1214 -0.91636,-0.36095 -0.73803,-0.86909c0.78314,-2.73618 4.25732,-10.39256 14.7734,-10.24435c9.13457,0.60801 10.30877,6.96342 10.21963,11.87178z" fill="#ffffff" stroke="#001026" stroke-width="1.2" stroke-linecap="round" stroke-linejoin="round"/><path d="M193.77325,201.14354c4.53235,-3.99847 11.7214,-4.4078 11.7214,-4.4078" fill="none" stroke="#001026" stroke-width="1.2" stroke-linecap="round" stroke-linejoin="round"/><path d="M194.59073,189.89802c6.27269,-0.77028 10.25074,0.96036 10.25074,0.96036" fill="none" stroke="#001026" stroke-width="1.2" stroke-linecap="round" stroke-linejoin="round"/><path d="M228.98907,198.42764c-2.09806,0.09025 -4.30462,-0.01502 -4.43461,-0.71008c-0.16007,-1.39441 1.21821,-4.25628 2.81244,-4.42495c1.78974,-0.27717 6.0933,2.04003 6.16206,3.63855c0.15148,1.19459 -2.54173,1.41053 -4.53988,1.49648z" fill="#001026" stroke="#001026" stroke-width="1.2" stroke-linecap="round" stroke-linejoin="round"/><path d="M274.01196,197.99239c0,0 -8.71238,-2.42783 -12.34237,-5.37455" fill="none" stroke="#001026" stroke-width="1.2" stroke-linecap="round" stroke-linejoin="round"/><path d="M261.21945,189.13396c4.22297,-1.88322 11.66341,-1.10225 11.66341,-1.10225" fill="none" stroke="#001026" stroke-width="1.2" stroke-linecap="round" stroke-linejoin="round"/><g><path d="M217.70277,210.62393c-3.09071,-4.37122 -3.40979,-9.46221 -0.68973,-11.38087c2.72006,-1.91867 7.40606,-0.01829 10.59667,4.34863c3.09071,4.37122 3.40979,9.46221 0.68973,11.38087c-2.71576,2.01857 -7.50596,0.02259 -10.59667,-4.34863z" fill="#ffffff" stroke="#001026" stroke-width="1.2" stroke-linecap="round" stroke-linejoin="round"/><path d="M217.85745,204.91201c-0.04727,-1.09898 0.71331,-2.03253 1.71239,-2.07551c0.99908,-0.04297 1.83701,0.82181 1.88429,1.9208c0.04727,1.09898 -0.71331,2.03253 -1.71239,2.07551c-0.99908,0.04297 -1.83701,-0.82181 -1.88429,-1.9208" fill="#001026" stroke="none" stroke-width="1" stroke-linecap="butt" stroke-linejoin="miter"/></g><g><path d="M242.35953,206.76074c-3.18632,-4.26701 -3.21857,-9.67062 -0.60271,-11.68489c3.2153,-2.04006 7.6714,-0.83044 10.85772,3.43657c3.28623,4.26271 3.731,9.94885 0.72841,12.28004c-2.99829,2.4311 -7.79709,0.2353 -10.98341,-4.03172z" fill="#ffffff" stroke="#001026" stroke-width="1.2" stroke-linecap="round" stroke-linejoin="round"/><path d="M242.70972,200.94032c-0.04727,-1.09898 0.71331,-2.03253 1.71239,-2.07551c0.99908,-0.04297 1.83701,0.82181 1.88429,1.9208c0.04727,1.09898 -0.71331,2.03253 -1.71239,2.07551c-1.00337,-0.05693 -1.83701,-0.82181 -1.88429,-1.9208" fill="#001026" stroke="none" stroke-width="1" stroke-linecap="butt" stroke-linejoin="miter"/></g></g></g></g></svg>